<svg xmlns="http://www.w3.org/2000/svg" viewBox="0 0 36.26 36.41"><defs><style>.cls-1{fill:#00a388;}</style></defs><title>social-shamrock</title><g id="Layer_2" data-name="Layer 2"><g id="Artwork"><path class="cls-1" d="M30.49,20.24s1.85,8.34-4,8.76c-3.95.29-6.77-5.57-8.17-9.35a55,55,0,0,1,0,7.45,52.66,52.66,0,0,1-1.89,9.32L14,34.32a66.45,66.45,0,0,0,2.67-8.88c.49-2.41.81-4.54,1-6.21-1.61,4.58-5.15,12.17-10.41,9.7-3.09-1.46-.82-6.25-.82-6.25s-7.38.43-6.4-5.22c1-6,10.3-4.05,15.36-2.54-3-3.84-7.24-10.54-2.51-13.62,2.87-1.86,5.75,2.59,5.75,2.59s3.52-6.5,7.81-2.7c3.86,3.42-.29,8.92-4,12.64,4.7-2.19,11.2-4.39,13-.84C38.83,19.65,30.49,20.24,30.49,20.24Z"/></g></g></svg>